<svg xmlns="http://www.w3.org/2000/svg" viewBox="0 0 64 64">
  <defs>
    <linearGradient id="bg" x1="0%" y1="0%" x2="100%" y2="100%">
      <stop offset="0%" style="stop-color:#0ea5e9;stop-opacity:1" />
      <stop offset="50%" style="stop-color:#6366f1;stop-opacity:1" />
      <stop offset="100%" style="stop-color:#8b5cf6;stop-opacity:1" />
    </linearGradient>
    <linearGradient id="accent" x1="0%" y1="0%" x2="100%" y2="100%">
      <stop offset="0%" style="stop-color:#fbbf24;stop-opacity:1" />
      <stop offset="100%" style="stop-color:#f59e0b;stop-opacity:1" />
    </linearGradient>
  </defs>
  
  <!-- Background -->
  <rect width="64" height="64" rx="14" fill="#0f172a"/>
  
  <!-- Circuit board pattern -->
  <g opacity="0.15" stroke="#fff" stroke-width="0.5" fill="none">
    <path d="M8 16h12l4 4h8m0 0v8l4 4v12"/>
    <path d="M56 48h-12l-4-4h-8m0 0v-8l-4-4v-12"/>
    <circle cx="20" cy="16" r="2" fill="#fff"/>
    <circle cx="44" cy="48" r="2" fill="#fff"/>
    <circle cx="32" cy="32" r="2" fill="#fff"/>
  </g>
  
  <!-- Main D shape with gradient -->
  <g transform="translate(32, 32)">
    <!-- Outer glow -->
    <circle cx="0" cy="0" r="18" fill="url(#bg)" opacity="0.3"/>
    
    <!-- D letter form -->
    <path d="M -10,-14 L -10,14 L 2,14 Q 12,14 12,0 Q 12,-14 2,-14 Z M -4,-8 L 2,-8 Q 6,-8 6,0 Q 6,8 2,8 L -4,8 Z" 
          fill="url(#bg)" 
          stroke="url(#accent)" 
          stroke-width="0.5"/>
    
    <!-- Tech accent dots -->
    <circle cx="10" cy="-10" r="2" fill="url(#accent)" opacity="0.8"/>
    <circle cx="-12" cy="12" r="1.5" fill="url(#accent)" opacity="0.6"/>
    <circle cx="12" cy="10" r="1" fill="#22d3ee" opacity="0.9"/>
  </g>
  
  <!-- Corner accent -->
  <path d="M 50,4 L 60,4 L 60,14" stroke="url(#accent)" stroke-width="2" fill="none" stroke-linecap="round" opacity="0.7"/>
</svg>
